<mxfile host="app.diagrams.net" modified="2021-12-12T16:08:49.835Z" agent="5.0 (Macintosh; Intel Mac OS X 10_15_7) AppleWebKit/537.36 (KHTML, like Gecko) Chrome/96.0.4664.55 Safari/537.36 Edg/96.0.1054.43" etag="YSIOYPPGbDFquuXgT6dT" version="15.9.4" type="github">
  <diagram id="HieteAUpjrvDFSmTmaD_" name="Page-1">
    <mxGraphModel dx="1773" dy="1673" grid="1" gridSize="10" guides="1" tooltips="1" connect="1" arrows="1" fold="1" page="1" pageScale="1" pageWidth="827" pageHeight="1169" math="0" shadow="0">
      <root>
        <mxCell id="0" />
        <mxCell id="1" parent="0" />
        <mxCell id="PhuEkCwryRIO3OiDSNfZ-7" value="" style="edgeStyle=orthogonalEdgeStyle;rounded=0;orthogonalLoop=1;jettySize=auto;html=1;" parent="1" source="PhuEkCwryRIO3OiDSNfZ-1" target="PhuEkCwryRIO3OiDSNfZ-2" edge="1">
          <mxGeometry relative="1" as="geometry" />
        </mxCell>
        <mxCell id="PhuEkCwryRIO3OiDSNfZ-1" value="kafka" style="rounded=1;whiteSpace=wrap;html=1;" parent="1" vertex="1">
          <mxGeometry x="100" y="150" width="120" height="60" as="geometry" />
        </mxCell>
        <mxCell id="PhuEkCwryRIO3OiDSNfZ-4" value="" style="edgeStyle=orthogonalEdgeStyle;rounded=0;orthogonalLoop=1;jettySize=auto;html=1;" parent="1" source="PhuEkCwryRIO3OiDSNfZ-2" target="PhuEkCwryRIO3OiDSNfZ-3" edge="1">
          <mxGeometry relative="1" as="geometry" />
        </mxCell>
        <mxCell id="PhuEkCwryRIO3OiDSNfZ-9" value="" style="edgeStyle=orthogonalEdgeStyle;rounded=0;orthogonalLoop=1;jettySize=auto;html=1;" parent="1" source="PhuEkCwryRIO3OiDSNfZ-2" target="PhuEkCwryRIO3OiDSNfZ-8" edge="1">
          <mxGeometry relative="1" as="geometry" />
        </mxCell>
        <mxCell id="PhuEkCwryRIO3OiDSNfZ-22" value="" style="edgeStyle=orthogonalEdgeStyle;rounded=0;orthogonalLoop=1;jettySize=auto;html=1;" parent="1" source="PhuEkCwryRIO3OiDSNfZ-2" target="PhuEkCwryRIO3OiDSNfZ-21" edge="1">
          <mxGeometry relative="1" as="geometry" />
        </mxCell>
        <mxCell id="PhuEkCwryRIO3OiDSNfZ-2" value="go" style="rounded=1;whiteSpace=wrap;html=1;" parent="1" vertex="1">
          <mxGeometry x="270" y="150" width="120" height="60" as="geometry" />
        </mxCell>
        <mxCell id="PhuEkCwryRIO3OiDSNfZ-6" value="" style="edgeStyle=orthogonalEdgeStyle;rounded=0;orthogonalLoop=1;jettySize=auto;html=1;" parent="1" source="PhuEkCwryRIO3OiDSNfZ-3" target="PhuEkCwryRIO3OiDSNfZ-5" edge="1">
          <mxGeometry relative="1" as="geometry" />
        </mxCell>
        <mxCell id="PhuEkCwryRIO3OiDSNfZ-3" value="go协程" style="rounded=1;whiteSpace=wrap;html=1;" parent="1" vertex="1">
          <mxGeometry x="270" y="290" width="120" height="60" as="geometry" />
        </mxCell>
        <mxCell id="PhuEkCwryRIO3OiDSNfZ-28" style="edgeStyle=orthogonalEdgeStyle;rounded=0;orthogonalLoop=1;jettySize=auto;html=1;entryX=1;entryY=0.5;entryDx=0;entryDy=0;" parent="1" source="PhuEkCwryRIO3OiDSNfZ-5" target="PhuEkCwryRIO3OiDSNfZ-8" edge="1">
          <mxGeometry relative="1" as="geometry">
            <Array as="points">
              <mxPoint x="650" y="320" />
              <mxPoint x="650" y="40" />
            </Array>
          </mxGeometry>
        </mxCell>
        <mxCell id="PhuEkCwryRIO3OiDSNfZ-29" value="成功删除备份数据" style="edgeLabel;html=1;align=center;verticalAlign=middle;resizable=0;points=[];" parent="PhuEkCwryRIO3OiDSNfZ-28" vertex="1" connectable="0">
          <mxGeometry x="-0.2596" y="-1" relative="1" as="geometry">
            <mxPoint as="offset" />
          </mxGeometry>
        </mxCell>
        <mxCell id="PhuEkCwryRIO3OiDSNfZ-5" value="腾讯云陌" style="rounded=1;whiteSpace=wrap;html=1;" parent="1" vertex="1">
          <mxGeometry x="470" y="290" width="120" height="60" as="geometry" />
        </mxCell>
        <mxCell id="PhuEkCwryRIO3OiDSNfZ-10" style="edgeStyle=orthogonalEdgeStyle;rounded=0;orthogonalLoop=1;jettySize=auto;html=1;" parent="1" source="PhuEkCwryRIO3OiDSNfZ-8" target="PhuEkCwryRIO3OiDSNfZ-1" edge="1">
          <mxGeometry relative="1" as="geometry" />
        </mxCell>
        <mxCell id="PhuEkCwryRIO3OiDSNfZ-8" value="存储Kafka获取数据&lt;br&gt;redis/mongodb/mysql/文件" style="rounded=1;whiteSpace=wrap;html=1;" parent="1" vertex="1">
          <mxGeometry x="240" y="10" width="180" height="60" as="geometry" />
        </mxCell>
        <mxCell id="PhuEkCwryRIO3OiDSNfZ-11" value="回传确认消费kafka数据" style="text;html=1;align=center;verticalAlign=middle;resizable=0;points=[];autosize=1;strokeColor=none;fillColor=none;" parent="1" vertex="1">
          <mxGeometry x="90" y="80" width="140" height="20" as="geometry" />
        </mxCell>
        <mxCell id="PhuEkCwryRIO3OiDSNfZ-18" value="" style="edgeStyle=orthogonalEdgeStyle;rounded=0;orthogonalLoop=1;jettySize=auto;html=1;" parent="1" source="PhuEkCwryRIO3OiDSNfZ-14" target="PhuEkCwryRIO3OiDSNfZ-16" edge="1">
          <mxGeometry relative="1" as="geometry">
            <Array as="points">
              <mxPoint x="320" y="-70" />
            </Array>
          </mxGeometry>
        </mxCell>
        <mxCell id="PhuEkCwryRIO3OiDSNfZ-14" value="" style="rounded=0;whiteSpace=wrap;html=1;fillColor=none;dashed=1;" parent="1" vertex="1">
          <mxGeometry x="140" y="-20" width="360" height="120" as="geometry" />
        </mxCell>
        <mxCell id="PhuEkCwryRIO3OiDSNfZ-16" value="使用协程写入" style="ellipse;shape=cloud;whiteSpace=wrap;html=1;align=center;dashed=1;fillColor=none;" parent="1" vertex="1">
          <mxGeometry x="530" y="-100" width="120" height="60" as="geometry" />
        </mxCell>
        <mxCell id="PhuEkCwryRIO3OiDSNfZ-30" style="edgeStyle=orthogonalEdgeStyle;rounded=0;orthogonalLoop=1;jettySize=auto;html=1;" parent="1" source="PhuEkCwryRIO3OiDSNfZ-19" target="PhuEkCwryRIO3OiDSNfZ-20" edge="1">
          <mxGeometry relative="1" as="geometry">
            <Array as="points">
              <mxPoint x="70" y="310" />
            </Array>
          </mxGeometry>
        </mxCell>
        <mxCell id="PhuEkCwryRIO3OiDSNfZ-19" value="" style="verticalLabelPosition=bottom;verticalAlign=top;html=1;shape=mxgraph.basic.rect;fillColor2=none;strokeWidth=1;size=20;indent=5;dashed=1;fillColor=none;" parent="1" vertex="1">
          <mxGeometry x="170" y="240" width="471" height="160" as="geometry" />
        </mxCell>
        <mxCell id="PhuEkCwryRIO3OiDSNfZ-20" value="使用redis分布式锁，解决可能的&lt;br&gt;重复获取kafka数据问题，同一个数据，&lt;br&gt;直接存到mysql中" style="ellipse;shape=cloud;whiteSpace=wrap;html=1;align=center;dashed=1;fillColor=none;" parent="1" vertex="1">
          <mxGeometry x="-70" y="420" width="280" height="100" as="geometry" />
        </mxCell>
        <mxCell id="PhuEkCwryRIO3OiDSNfZ-26" style="edgeStyle=orthogonalEdgeStyle;rounded=0;orthogonalLoop=1;jettySize=auto;html=1;entryX=1;entryY=0.5;entryDx=0;entryDy=0;" parent="1" source="PhuEkCwryRIO3OiDSNfZ-21" target="PhuEkCwryRIO3OiDSNfZ-8" edge="1">
          <mxGeometry relative="1" as="geometry">
            <Array as="points">
              <mxPoint x="500" y="110" />
              <mxPoint x="440" y="110" />
              <mxPoint x="440" y="40" />
            </Array>
          </mxGeometry>
        </mxCell>
        <mxCell id="PhuEkCwryRIO3OiDSNfZ-21" value="处理异常数据" style="rounded=1;whiteSpace=wrap;html=1;" parent="1" vertex="1">
          <mxGeometry x="440" y="150" width="120" height="60" as="geometry" />
        </mxCell>
        <mxCell id="PhuEkCwryRIO3OiDSNfZ-31" value="使用redis存储已经发送的数据，保证发送的&lt;br&gt;数据不会出现同个数据不同时间前&lt;br&gt;后颠倒，导致数据错误的问题，例如key为id，&lt;br&gt;值为对应更新的值和时间" style="ellipse;shape=cloud;whiteSpace=wrap;html=1;align=center;dashed=1;fillColor=none;" parent="1" vertex="1">
          <mxGeometry x="330" y="470" width="460" height="100" as="geometry" />
        </mxCell>
        <mxCell id="PhuEkCwryRIO3OiDSNfZ-33" style="edgeStyle=orthogonalEdgeStyle;rounded=0;orthogonalLoop=1;jettySize=auto;html=1;entryX=0.541;entryY=0.111;entryDx=0;entryDy=0;entryPerimeter=0;" parent="1" source="PhuEkCwryRIO3OiDSNfZ-32" target="PhuEkCwryRIO3OiDSNfZ-31" edge="1">
          <mxGeometry relative="1" as="geometry" />
        </mxCell>
        <mxCell id="PhuEkCwryRIO3OiDSNfZ-32" value="" style="rounded=0;whiteSpace=wrap;html=1;dashed=1;fillColor=none;" parent="1" vertex="1">
          <mxGeometry x="440" y="270" width="180" height="110" as="geometry" />
        </mxCell>
      </root>
    </mxGraphModel>
  </diagram>
</mxfile>
